PathFileType	4	(X/Y/Z)	Patient4_TMGait_0pt3_03_left_27.trc.trc
DataRate	CameraRate	NumFrames	NumMarkers	Units	OrigDataRate	OrigDataStartFrame	OrigNumFrames
53.435114503817	53.435114503817	5	33	mm	53.435114503817	18	       141
Frame#	Time	Sacral			L.Shoulder			Chest			R.Shoulder			Neck			R.ASIS			L.ASIS			R.Thigh.Superior			R.Thigh.Lateral			R.Thigh.Inferior			R.Patella			L.Thigh.Superior			L.Thigh.Lateral			L.Thigh.Inferior			L.Patella			L.Shank.Superior			L.Shank.Lateral			L.Shank.Inferior			R.Shank.Superior			R.Shank.Lateral			R.Shank.Inferior			R.Heel			R.Midfoot.Superior			R.Midfoot.Lateral			R.Toe			L.Heel			L.Midfoot.Lateral			L.Midfoot.Superior			L.Toe			L.Elbow			L.Wrist			R.Elbow			R.Wrist			
		X1	Y1	Z1	X2	Y2	Z2	X3	Y3	Z3	X4	Y4	Z4	X5	Y5	Z5	X6	Y6	Z6	X7	Y7	Z7	X8	Y8	Z8	X9	Y9	Z9	X10	Y10	Z10	X11	Y11	Z11	X12	Y12	Z12	X13	Y13	Z13	X14	Y14	Z14	X15	Y15	Z15	X16	Y16	Z16	X17	Y17	Z17	X18	Y18	Z18	X19	Y19	Z19	X20	Y20	Z20	X21	Y21	Z21	X22	Y22	Z22	X23	Y23	Z23	X24	Y24	Z24	X25	Y25	Z25	X26	Y26	Z26	X27	Y27	Z27	X28	Y28	Z28	X29	Y29	Z29	X30	Y30	Z30	X31	Y31	Z31	X32	Y32	Z32	X33	Y33	Z33	

18	47.858142857143	698.098828268055	1003.523907593912	603.610221859915	850.351489667947	1420.619418117027	381.891042797674	979.189011821255	1354.116096197014	523.847775562538	932.647430326583	1436.544214428353	706.195622510108	860.936172287436	1487.122724161420	535.458115266159	941.452707485441	930.850401683392	679.805980624375	883.626289686470	955.992177729243	410.841739340035	964.915245728390	726.499700743795	636.954647001597	888.242232299459	616.652300443185	702.784464818267	948.401035341617	565.185495215313	608.982987934837	943.240887851227	473.376181135713	611.125158672498	965.063218605746	773.147288097018	439.044368982761	917.058869342641	646.536421130215	360.651089415541	1017.742179958563	586.036122480101	424.636930080230	1044.521302138434	520.472054366280	418.449681003751	1024.202823649776	448.957331936037	404.102605352130	953.791591821225	324.354746011887	344.553764767108	1035.470481246623	218.087763028739	396.132034211255	899.793047151184	387.811207414731	621.255990895814	822.156561653803	293.471939506978	690.768009875497	836.936364624234	197.206077613081	621.643811058610	677.034784551677	43.941793433763	605.579871208740	851.425189682203	96.395119485339	628.487050159659	765.028003562695	37.291071257590	674.182035089556	972.154245988678	42.504840435326	649.582778705552	940.962766802606	43.471756453872	426.195639714756	1018.325311578309	43.254327337814	349.545609175690	1093.613916169927	116.687632177572	372.873259954819	1225.709756522740	79.406235062486	351.879930678077	710.066459683412	1092.751009905445	300.128398529413	678.496046925689	834.659812737984	326.913863450890	1115.928944165451	1168.457561231544	841.626359301041	1359.395467608760	1231.187633148933	793.545417701159	
19	47.876857142857	698.379076725863	1004.334611492773	601.757913293516	849.079085918333	1421.391629577641	379.606127080150	978.883349832975	1354.694211576340	520.683050295107	933.442464517791	1437.238610513807	703.097127602049	860.578790400121	1487.619881714515	533.089350390577	941.526365105252	931.234598373612	677.295026178660	883.186154282277	956.203844179826	408.422735415069	962.072693084030	725.992816228048	635.165444499091	884.060793187453	617.224542345082	701.840504550800	943.040226689078	564.716560605844	608.161352978760	936.571217137678	473.451344367767	610.601670522204	963.068408887881	771.656091556442	435.834181940141	912.306819754429	645.162211620100	358.233569945173	1012.891895619743	584.062755736594	421.430949731503	1039.113701751342	519.892613351911	416.353748684880	1020.925464777480	448.807854636700	402.268420886476	954.654416529290	322.034634629927	342.274979335984	1038.984517363817	218.314534383373	394.931518687017	893.499377293859	388.034036049475	621.003224102632	815.960325607488	293.675977862836	690.678520450783	830.983351704802	197.369350285392	621.622096362916	671.284030548569	43.860101555654	605.620920632348	845.741305772450	96.418077907841	628.505484136570	759.298507559732	37.239086778638	674.236014501725	966.415060204691	42.649891370079	649.537464121403	948.790867639248	41.912799246475	424.299066334472	1027.253198529630	42.553057605873	348.675583691883	1100.634410484137	117.583676463619	372.620116587089	1233.844150260049	82.747811909186	353.831659012740	705.302321800057	1095.084204057795	300.780660402665	671.587964127557	837.374087970164	331.107584358500	1124.173491748743	1175.640937399363	836.398024530073	1364.192770121843	1248.044599625455	785.467107106247	
20	47.895571428571	698.850934528888	1004.841963894736	599.490727807762	848.058911468075	1421.879155457159	376.927504227625	978.680946300551	1355.072778258277	517.292080009398	934.079656463304	1437.694233681870	699.717018339536	860.274380976757	1487.892497151880	530.331356429040	941.792538626696	931.530674634420	674.676368504788	883.139590822384	956.070366787959	405.851110823504	959.548029412787	725.399370639182	633.353066979591	880.083903489310	617.724614808171	700.791320961912	937.906349000253	564.171462156451	607.301349530465	930.086952625486	473.458853729095	610.014144815426	961.639732225283	769.981576261629	432.554746748398	908.093960356263	643.481201796007	356.009650573898	1008.712034254905	581.984459784495	418.354500992056	1034.125266637726	518.800886206216	414.373567051024	1017.603722291225	448.040635695837	400.508675609713	954.255828671193	319.840281844604	340.492217793157	1040.410924419144	218.098422025423	393.991906952686	887.365771395503	388.184286169760	620.693813999361	809.871873645378	293.856539118928	690.552739257275	825.099888523526	197.485012834919	621.577857497922	665.534873339347	43.756546312299	605.659495835565	840.067755011815	96.433688168265	628.521653819578	753.569561534269	37.170182096789	674.293075762667	960.672714254223	42.810927275109	649.485753906839	953.265484426428	40.776048019128	422.989164392172	1032.446361528534	42.067941086847	348.025893462452	1104.500633989205	117.991950399253	372.530589036190	1238.405899055382	84.768512041400	355.160482913327	701.598667317824	1096.750260403014	301.035210574282	666.094298606333	839.413482402584	334.718021734406	1131.443721046764	1182.239976650501	830.926613327546	1368.062989258089	1263.164107812154	777.647996210591	
21	47.914285714286	699.496857711759	1005.021544128702	596.836704391692	847.294833888662	1422.036117758178	373.846388864914	978.589125966421	1355.219430403357	513.669226346705	934.573811212901	1437.883749963433	696.061583584554	860.038784503242	1487.912323517233	527.182695443544	942.260680615677	931.704426757485	671.948518371363	883.462515741264	955.572576357742	403.131475305645	957.398713916426	724.694912631419	631.505632155707	876.403363458322	618.114936933244	699.616919157726	933.098316216510	563.531069649573	606.367702351679	923.910070747067	473.360867067118	609.324352824495	960.787198339322	768.174749880962	429.293084728305	904.570589656844	641.563978695741	353.994086787348	1005.322630356309	579.886347341438	415.483854838898	1029.707498287161	517.273511347867	412.538822362011	1014.439334733301	446.700904006686	398.848189488325	952.846566277281	317.681210321740	339.182738200524	1040.085158867549	217.330442258199	393.324688283169	881.477534622513	388.228072835408	620.292001263977	803.966140774701	294.004725474504	690.369499789072	819.324455213363	197.536663372030	621.495534081152	659.794248967668	43.636092850734	605.695524153927	834.406450949562	96.439313737642	628.531213360315	747.846665282715	37.085013817218	674.350353892016	954.931106759083	42.978360170672	649.430485237233	954.735887223113	39.872100276682	422.266598355893	1034.275617897514	41.574936620001	347.602280272097	1105.623621973521	117.715921258461	372.624299436445	1239.851631745792	85.223044517053	355.915143427211	698.936678578317	1097.684429112960	300.819273286285	661.968638596619	840.707849366457	337.589219311647	1137.752066572962	1188.110165653709	825.279777526200	1371.147003353415	1276.416899457201	770.113625947011	
22	47.933000000000	700.295390513261	1004.883238402308	593.834698792357	846.786885661517	1421.847744343670	370.367703651576	978.616597529916	1355.127559323902	509.814814816307	934.953807030665	1437.810537933451	692.143184224343	859.889922648297	1487.678806277446	523.651345370621	942.927624747946	931.735115913183	669.105424813169	884.115759141226	954.735079440130	400.266490665531	955.649796478351	723.866390391210	629.599419802443	873.085959037148	618.370382132794	698.292490350050	928.688829575799	562.786514555966	605.318996649814	918.136289960955	473.130017919850	608.491449210836	960.510454569352	766.319925487855	426.138606176672	901.878772514739	639.523421957920	352.175051232823	1002.822047656252	577.865279736722	412.871043116320	1025.998632661984	515.425428704748	410.867277563520	1011.632389712363	444.893713292512	397.304036958654	950.760982881336	315.530564388426	338.270498394563	1038.421533575366	216.008046928482	392.920548203235	875.898255697891	388.143610195666	619.760775947888	798.300630052208	294.119447511259	690.103938471353	813.686367317040	197.517806333594	621.358579991407	654.068494656897	43.508709694615	605.727763775178	828.760202551204	96.434963717594	628.528685141161	742.134836576760	36.988126895002	674.402930477142	949.194048549832	43.141504168453	649.374370661811	953.684589771095	39.100103103423	422.070525832618	1033.283259119329	40.949738436308	347.391978359064	1104.532568120271	116.692076992938	372.911879480995	1238.764333563000	84.057535863244	356.221347831648	697.288790281846	1097.868520482543	300.063681198146	659.180685199123	841.225432843410	339.573551263535	1143.123985978793	1193.135764538557	819.526681274493	1373.575307160223	1287.714283962180	762.877931517314	
